PathFileType	4	(X/Y/Z)	/Users/visionmauri/1_5_1_f_1_Sports2D/1_5_1_f_1_Sports2D_m_person00.trc
DataRate	CameraRate	NumFrames	NumMarkers	Units	OrigDataRate	OrigDataStartFrame	OrigNumFrames
30.0	30.0	5	22	m	30.0	0	432
Frame#	Time	Hip			RHip			RKnee			RAnkle			RBigToe			RSmallToe			RHeel			LHip			LKnee			LAnkle			LBigToe			LSmallToe			LHeel			Neck			Head			Nose			RShoulder			RElbow			RWrist			LShoulder			LElbow			LWrist			
		X1	Y1	Z1	X2	Y2	Z2	X3	Y3	Z3	X4	Y4	Z4	X5	Y5	Z5	X6	Y6	Z6	X7	Y7	Z7	X8	Y8	Z8	X9	Y9	Z9	X10	Y10	Z10	X11	Y11	Z11	X12	Y12	Z12	X13	Y13	Z13	X14	Y14	Z14	X15	Y15	Z15	X16	Y16	Z16	X17	Y17	Z17	X18	Y18	Z18	X19	Y19	Z19	X20	Y20	Z20	X21	Y21	Z21	X22	Y22	Z22
0	0.0	0.7113570914922434	0.7622131956091653	0.0301	0.866676776295322	0.7688098352129089	0.0301	1.0528813733750224	0.2819749112192748	0.129	1.225354883790212	-0.21454777196223504	0.023	1.1992736289138834	-0.24313428571908807	0.2179	1.294509947994732	-0.22391823021174442	0.1804	1.2624399725766449	-0.3066092023692997	-0.0119	0.603128614672334	0.6574614674560423	0.0301	0.8016741184142447	0.2137575175645882	0.129	0.9989491301933889	-0.27785377629097463	0.023	1.0475740920654109	-0.3899588292345622	0.2179	0.9735312083305248	-0.42250606640358823	0.1804	1.050769794660077	-0.3551099699159287	-0.0119	0.3780986458693535	1.473210632607903	0.0008	0.3038736287314291	1.6265154138366702	0.0655	0.3821831757654437	1.5091925185052513	0.1076	0.6682086296936098	1.4849344046432629	-0.01275	0.9337520655482763	1.206546373695667	0.0702	1.0732646275344533	0.9271827191018124	0.1076	0.19429711065822908	1.2878854257009702	-0.01275	0.2521007141899519	0.8569657654293662	0.0702	0.28661717879009047	0.834333156122767	0.1076
1	0.03341067285382831	0.709344225469794	0.7653389492708622	0.0301	0.8660155214447949	0.7654652606860599	0.0301	1.0528140684138896	0.2803003967226491	0.129	1.2239247945778156	-0.2120982533286304	0.023	1.2018421823366323	-0.2428580180791731	0.2179	1.2980358609974627	-0.22274118339311696	0.1804	1.2611503539894742	-0.3051187319631746	-0.0119	0.6026311932210713	0.6562296665811713	0.0301	0.8022462082982916	0.2148762878317877	0.129	0.9995391693017683	-0.2745233055319635	0.023	1.0496150600063998	-0.3988217134302464	0.2179	0.9795022114701049	-0.4334892717220017	0.1804	1.0506729483462245	-0.36082502666949223	-0.0119	0.37900566677871805	1.4759373002008713	0.0008	0.305185953025095	1.6292491196104482	0.0655	0.37985351587128696	1.514779267178774	0.1076	0.6684286982999875	1.488487023785961	-0.01275	0.927605614961869	1.2111692837161965	0.0702	1.0739977915182997	0.9262778437669419	0.1076	0.19352450509081706	1.2881673621789176	-0.01275	0.25541562660005346	0.8564543585354085	0.0702	0.28821742312824056	0.8387554809536141	0.1076
2	0.06682134570765662	0.708836660490907	0.7677717838864622	0.0301	0.868421555272996	0.7606632256642332	0.0301	1.0522943008602896	0.27911705723299474	0.129	1.223557755410505	-0.21206426800570624	0.023	1.204738549746598	-0.24202465101420925	0.2179	1.3009559969606934	-0.2228932513463029	0.1804	1.2586437029902404	-0.3043192835364955	-0.0119	0.6041198686428472	0.655538407511862	0.0301	0.8023438777202017	0.21876627854588296	0.129	1.000139517090269	-0.27271309930816046	0.023	1.0557853558548072	-0.4161885938511722	0.2179	0.9894855705436343	-0.4505556168621252	0.1804	1.0507842402108687	-0.3659298071219157	-0.0119	0.38066859313961404	1.4816751293703212	0.0008	0.3103844551888291	1.6317807326416474	0.0655	0.3863490695582304	1.5210522855906645	0.1076	0.6691489316245971	1.4924434521241383	-0.01275	0.9245811180739276	1.2150763547491281	0.0702	1.0753719937256017	0.9261414680249049	0.1076	0.19458229574898434	1.2886652856130083	-0.01275	0.2586087887266613	0.8573784547535588	0.0702	0.2933745355417092	0.8455025275384648	0.1076
3	0.10023201856148492	0.7116442134292894	0.7685017598917406	0.0301	0.8747363186252214	0.7567995337105625	0.0301	1.0515994774481512	0.27863480981963545	0.129	1.2245673353706554	-0.21496414064431765	0.023	1.2066792769294752	-0.24174099743113134	0.2179	1.3017946847915556	-0.22540335326699873	0.1804	1.255953758252301	-0.3046018556583215	-0.0119	0.6079307184388066	0.6561605990129915	0.0301	0.8016864303004152	0.227756013776469	0.129	1.0006861319924247	-0.27354335322128137	0.023	1.0632280839986057	-0.43583920549983574	0.2179	0.9998976066879085	-0.4670316640188568	0.1804	1.0513550303234902	-0.36854382388680623	-0.0119	0.3839315269101679	1.489683266362234	0.0008	0.3188342718331137	1.63424712562146	0.0655	0.40221099517930614	1.5259895372732606	0.1076	0.6713033536376952	1.4959966810470926	-0.01275	0.9265630149763637	1.2166763147943238	0.0702	1.0772439801410918	0.9274669115087465	0.1076	0.19925694697699284	1.2906805022265162	-0.01275	0.2622541389082641	0.86098492645242	0.0702	0.3013348976200428	0.8522180781986934	0.1076
4	0.13364269141531324	0.7165059099124679	0.7688345658557604	0.0301	0.8809338535404677	0.7573596476027062	0.0301	1.0514542502835063	0.27882588001003694	0.129	1.2257940734275765	-0.21828267814578473	0.023	1.2065792533782456	-0.2444106753723312	0.2179	1.3001987507028192	-0.2290017772462383	0.1804	1.2547196729860073	-0.30491504465843783	-0.0119	0.6118126844684696	0.6578157059993005	0.0301	0.8001513239423639	0.2409198112377696	0.129	1.0012607652390206	-0.27536531755327615	0.023	1.0662338303107863	-0.44634045965722297	0.2179	1.0043926484646746	-0.47227249275623767	0.1804	1.0525964801179397	-0.3688733558271942	-0.0119	0.39017461552363253	1.4965129174299585	0.0008	0.3276071323649228	1.6373396764536854	0.0655	0.41879726033796094	1.5289816410364812	0.1076	0.676990014971558	1.4989800741665875	-0.01275	0.9307988935139657	1.2168111094284655	0.0702	1.0784424741382976	0.9299268451972543	0.1076	0.20710792753548163	1.2956492471242849	-0.01275	0.26709411578975806	0.8670095738558413	0.0702	0.3069768580620277	0.8551929057105485	0.1076
